<svg width="19" height="20" viewBox="0 0 19 20" fill="none" xmlns="http://www.w3.org/2000/svg">
<path fill-rule="evenodd" clip-rule="evenodd" d="M14.2669 1.53621C14.2669 1.13416 13.9308 0.808228 13.5161 0.808228C13.1015 0.808228 12.7654 1.13416 12.7654 1.53621V2.2642H5.2581V1.53621C5.2581 1.13416 4.92198 0.808228 4.50736 0.808228C4.09274 0.808228 3.75663 1.13416 3.75663 1.53621V2.2642H1.5044C0.67516 2.2642 0.00292969 2.91606 0.00292969 3.72017V7.36019V18.2799C0.00292969 19.084 0.67516 19.7358 1.5044 19.7358H16.5191C17.3483 19.7358 18.0206 19.084 18.0206 18.2799V7.36019V3.72017C18.0206 2.91606 17.3483 2.2642 16.5191 2.2642H14.2669V1.53621ZM16.5191 6.63221V3.72017H14.2669V4.44815C14.2669 4.85021 13.9308 5.17614 13.5161 5.17614C13.1015 5.17614 12.7654 4.85021 12.7654 4.44815V3.72017H5.2581V4.44815C5.2581 4.85021 4.92198 5.17614 4.50736 5.17614C4.09274 5.17614 3.75663 4.85021 3.75663 4.44815V3.72017H1.5044V6.63221H16.5191ZM1.5044 8.08818H16.5191V18.2799H1.5044V8.08818Z" fill="#757589"/>
</svg>
