<svg width="188" height="91" viewBox="0 0 188 91" fill="none" xmlns="http://www.w3.org/2000/svg">
<path d="M10.5388 13.649L10.5388 13.649L10.533 13.6569C4.83798 21.3802 2.07812 31.8702 2.07812 44.9594C2.07812 58.0498 4.83844 68.5731 10.5287 76.368L10.5337 76.3748L10.5388 76.3816C16.4054 84.2301 25.3688 88.0527 37.1211 88.0527C48.8029 88.0527 57.727 84.2275 63.5917 76.3816L63.596 76.3758C69.3649 68.5799 72.1641 58.0535 72.1641 44.9594C72.1641 31.9405 69.3652 21.4868 63.5941 13.7641C57.7316 5.84358 48.8073 1.97791 37.1211 1.97791C25.3688 1.97791 16.4054 5.80051 10.5388 13.649ZM42.9914 32.0875L42.9914 32.0876L42.9961 32.0993C44.0807 34.811 44.6777 39.052 44.6777 44.9594C44.6777 50.9361 44.082 55.2561 42.9938 58.0488C42.501 59.2779 41.792 60.1227 40.8912 60.677C39.9748 61.241 38.7474 61.5726 37.1211 61.5726C35.4523 61.5726 34.1942 61.2388 33.2585 60.6717C32.3406 60.1155 31.6268 59.2713 31.1366 58.0488C30.0484 55.2561 29.4527 50.9361 29.4527 44.9594C29.4527 39.052 30.0497 34.811 31.1344 32.0993L31.1344 32.0993L31.139 32.0875C31.6339 30.8195 32.354 29.9488 33.2725 29.3782C34.2056 28.7986 35.4583 28.458 37.1211 28.458C38.7413 28.458 39.9632 28.7963 40.8771 29.3728C41.7788 29.9415 42.494 30.813 42.9914 32.0875ZM78.3448 74.7009V76.2009H79.8448H113.341V87V88.5H114.841H139.887H141.387V87V76.2009H147.937H149.437V74.7009V53.2334V51.7334H147.937H141.387V6.49678V4.99678H139.887H113.164H112.384L111.936 5.63561L78.6166 53.1549L78.3448 53.5425V54.016V74.7009ZM115.354 51.7334H107.553L115.354 39.8153V51.7334ZM159.253 85.5512C162.198 88.1595 166.048 89.3945 170.646 89.3945C175.177 89.3945 178.987 88.1554 181.927 85.5512C184.859 82.9541 186.346 79.6373 186.346 75.7072C186.346 71.7171 184.87 68.3623 181.936 65.7594C178.998 63.0775 175.185 61.7963 170.646 61.7963C166.04 61.7963 162.187 63.0731 159.244 65.7594C156.31 68.3622 154.834 71.7171 154.834 75.7072C154.834 79.6373 156.321 82.9541 159.253 85.5512Z" stroke="black" stroke-opacity="0.05" stroke-width="3"/>
</svg>
