<svg width="178" height="91" viewBox="0 0 178 91" fill="none" xmlns="http://www.w3.org/2000/svg">
<path d="M10.5388 13.649L10.5388 13.649L10.533 13.6569C4.83798 21.3802 2.07812 31.8702 2.07812 44.9594C2.07812 58.0498 4.83844 68.5731 10.5287 76.368L10.5337 76.3748L10.5388 76.3816C16.4054 84.2301 25.3688 88.0527 37.1211 88.0527C48.8029 88.0527 57.727 84.2275 63.5917 76.3816L63.596 76.3758C69.3649 68.5799 72.1641 58.0535 72.1641 44.9594C72.1641 31.9405 69.3652 21.4868 63.5941 13.7641C57.7316 5.84358 48.8073 1.97791 37.1211 1.97791C25.3688 1.97791 16.4054 5.80051 10.5388 13.649ZM42.9914 32.0875L42.9914 32.0876L42.9961 32.0993C44.0807 34.811 44.6777 39.052 44.6777 44.9594C44.6777 50.9361 44.082 55.2561 42.9938 58.0488C42.501 59.2779 41.792 60.1227 40.8912 60.677C39.9748 61.241 38.7474 61.5726 37.1211 61.5726C35.4523 61.5726 34.1942 61.2388 33.2585 60.6717C32.3406 60.1155 31.6268 59.2713 31.1366 58.0488C30.0484 55.2561 29.4527 50.9361 29.4527 44.9594C29.4527 39.052 30.0497 34.811 31.1344 32.0993L31.1344 32.0993L31.139 32.0875C31.6339 30.8195 32.354 29.9488 33.2725 29.3782C34.2056 28.7986 35.4583 28.458 37.1211 28.458C38.7413 28.458 39.9632 28.7963 40.8771 29.3728C41.7788 29.9415 42.494 30.813 42.9914 32.0875ZM77.5626 30.8336L77.5238 32.3714H79.0621H103.213H104.713V30.8714C104.713 28.6608 105.052 27.2516 105.535 26.4409C105.946 25.7528 106.483 25.4391 107.35 25.4391C108.11 25.4391 108.652 25.6981 109.105 26.2411L109.127 26.2683L109.151 26.2944C109.611 26.7964 109.987 27.7353 109.987 29.4178C109.987 31.2868 109.45 32.3621 108.653 32.9951C107.801 33.672 106.338 34.0973 103.972 33.9582L103.928 33.9556H103.884H99.8588H98.3588V35.4556V55.4696V56.9696H99.8588H103.996C107.194 56.9696 109.048 57.5323 109.968 58.299L110.002 58.3277L110.038 58.3543C110.996 59.0604 111.552 60.1317 111.552 61.8427C111.552 63.1839 111.197 64.1515 110.59 64.8707C109.989 65.5123 109.278 65.8214 108.356 65.8214C106.353 65.8214 105.271 65.2585 104.68 64.4672C104.041 63.4276 103.677 61.7546 103.816 59.2425L103.904 57.6593H102.319H78.1676H76.6447L76.6678 59.182C76.8209 69.2892 79.7416 77.0065 85.7019 82.0002C91.5688 86.9158 99.5545 89.2826 109.474 89.2826C115.313 89.2826 120.43 88.2458 124.778 86.1124C129.187 83.9855 132.618 80.9662 135.016 77.0495C137.413 73.135 138.591 68.6463 138.591 63.6317C138.591 58.8308 137.407 54.6799 134.955 51.2679C133.003 48.5515 130.303 46.3789 126.914 44.7199C129.167 43.4941 131.226 41.762 133.093 39.5552L133.099 39.548L133.105 39.5408C135.854 36.2095 137.138 31.7313 137.138 26.2871C137.138 21.7045 135.989 17.5508 133.671 13.8688C131.411 10.1613 128.045 7.26205 123.655 5.14562C119.23 3.01226 113.964 1.97791 107.909 1.97791C98.5612 1.97791 91.1028 4.39544 85.7494 9.42913L85.7413 9.4369C80.4549 14.483 77.793 21.6923 77.5626 30.8336ZM149.317 85.5512C152.262 88.1595 156.111 89.3945 160.71 89.3945C165.241 89.3945 169.051 88.1554 171.991 85.5512C174.923 82.9541 176.409 79.6373 176.409 75.7072C176.409 71.7171 174.934 68.3623 172 65.7594C169.062 63.0775 165.249 61.7963 160.71 61.7963C156.104 61.7963 152.25 63.0731 149.308 65.7594C146.374 68.3622 144.898 71.7171 144.898 75.7072C144.898 79.6373 146.384 82.9541 149.317 85.5512Z" stroke="black" stroke-opacity="0.05" stroke-width="3"/>
</svg>
