<svg width="173" height="91" viewBox="0 0 173 91" fill="none" xmlns="http://www.w3.org/2000/svg">
<path d="M10.5388 13.6491L10.5388 13.6491L10.533 13.6569C4.83798 21.3803 2.07812 31.8702 2.07812 44.9594C2.07812 58.0498 4.83844 68.5731 10.5287 76.368L10.5337 76.3748L10.5388 76.3816C16.4054 84.2302 25.3688 88.0528 37.1211 88.0528C48.8029 88.0528 57.727 84.2276 63.5917 76.3816L63.596 76.3758C69.3649 68.5799 72.1641 58.0536 72.1641 44.9594C72.1641 31.9406 69.3652 21.4868 63.5941 13.7641C57.7316 5.84361 48.8073 1.97794 37.1211 1.97794C25.3688 1.97794 16.4054 5.80054 10.5388 13.6491ZM42.9914 32.0876L42.9914 32.0876L42.9961 32.0993C44.0807 34.811 44.6777 39.052 44.6777 44.9594C44.6777 50.9361 44.082 55.2561 42.9938 58.0488C42.501 59.2779 41.792 60.1228 40.8912 60.6771C39.9748 61.2411 38.7474 61.5727 37.1211 61.5727C35.4523 61.5727 34.1942 61.2389 33.2585 60.6718C32.3406 60.1155 31.6268 59.2713 31.1366 58.0488C30.0484 55.2561 29.4527 50.9361 29.4527 44.9594C29.4527 39.052 30.0497 34.811 31.1344 32.0993L31.1344 32.0994L31.139 32.0876C31.6339 30.8195 32.354 29.9488 33.2725 29.3783C34.2056 28.7986 35.4583 28.458 37.1211 28.458C38.7413 28.458 39.9632 28.7963 40.8771 29.3728C41.7788 29.9415 42.494 30.813 42.9914 32.0876ZM76.2642 66.0075L75.6613 66.4574V67.2096V85.8819V87.3819H77.1613H134.967H136.467V85.8819V65.8679V64.3679H134.967H114.25C119.842 60.2899 124.62 55.5314 128.576 50.092C133.59 43.2261 136.132 35.8398 136.132 27.9643C136.132 20.4718 133.778 14.2286 129.001 9.36711C124.205 4.33379 116.758 1.97794 107.015 1.97794C101.448 1.97794 96.3093 3.06165 91.6214 5.24934C86.8701 7.4666 83.0054 10.9491 80.0311 15.6453L80.0263 15.6529L80.0215 15.6606C77.0891 20.4159 75.5561 26.3939 75.3267 33.5065L75.2767 35.0548H76.8259H100.865H102.476L102.361 33.448C102.144 30.4067 102.466 28.4594 103.068 27.356C103.76 26.1511 104.508 25.7746 105.337 25.7746C106.159 25.7746 106.718 26.0583 107.167 26.6427L107.189 26.6704L107.211 26.697C107.724 27.3028 108.086 28.2874 108.086 29.8651C108.086 34.5978 105.479 39.9443 99.7815 45.9348C94.0443 51.8921 86.2136 58.5826 76.2642 66.0075ZM143.857 85.5513C146.802 88.1596 150.652 89.3945 155.25 89.3945C159.781 89.3945 163.591 88.1554 166.531 85.5513C169.463 82.9541 170.95 79.6374 170.95 75.7072C170.95 71.7171 169.474 68.3623 166.54 65.7594C163.602 63.0775 159.789 61.7963 155.25 61.7963C150.644 61.7963 146.791 63.0731 143.848 65.7594C140.914 68.3623 139.438 71.7171 139.438 75.7072C139.438 79.6374 140.925 82.9541 143.857 85.5513Z" stroke="black" stroke-opacity="0.05" stroke-width="3"/>
</svg>
