<svg width="154" height="91" viewBox="0 0 154 91" fill="none" xmlns="http://www.w3.org/2000/svg">
<path d="M10.5388 13.6491L10.5388 13.6491L10.533 13.6569C4.83798 21.3803 2.07812 31.8702 2.07812 44.9594C2.07812 58.0498 4.83844 68.5731 10.5287 76.368L10.5337 76.3748L10.5388 76.3816C16.4054 84.2302 25.3688 88.0528 37.1211 88.0528C48.8029 88.0528 57.727 84.2276 63.5917 76.3816L63.596 76.3758C69.3649 68.5799 72.1641 58.0536 72.1641 44.9594C72.1641 31.9406 69.3652 21.4868 63.5941 13.7641C57.7316 5.84361 48.8073 1.97794 37.1211 1.97794C25.3688 1.97794 16.4054 5.80054 10.5388 13.6491ZM42.9914 32.0876L42.9914 32.0876L42.9961 32.0993C44.0807 34.811 44.6777 39.052 44.6777 44.9594C44.6777 50.9361 44.082 55.2561 42.9938 58.0488C42.501 59.2779 41.792 60.1228 40.8912 60.6771C39.9748 61.2411 38.7474 61.5727 37.1211 61.5727C35.4523 61.5727 34.1942 61.2389 33.2585 60.6718C32.3406 60.1155 31.6268 59.2713 31.1366 58.0488C30.0484 55.2561 29.4527 50.9361 29.4527 44.9594C29.4527 39.052 30.0497 34.811 31.1344 32.0993L31.1344 32.0994L31.139 32.0876C31.6339 30.8195 32.354 29.9488 33.2725 29.3783C34.2056 28.7986 35.4583 28.458 37.1211 28.458C38.7413 28.458 39.9632 28.7963 40.8771 29.3728C41.7788 29.9415 42.494 30.813 42.9914 32.0876ZM73.6488 28.5234V30.0234H75.1488H85.5006V87V88.5H87.0006H113.052H114.552V87V5.2669V3.7669H113.052H75.1488H73.6488V5.2669V28.5234ZM125.186 85.5513C128.131 88.1596 131.981 89.3945 136.579 89.3945C141.11 89.3945 144.92 88.1554 147.86 85.5513C150.792 82.9541 152.279 79.6374 152.279 75.7072C152.279 71.7171 150.803 68.3623 147.869 65.7594C144.931 63.0775 141.118 61.7963 136.579 61.7963C131.973 61.7963 128.12 63.0731 125.177 65.7592C122.243 68.3621 120.767 71.717 120.767 75.7072C120.767 79.6374 122.254 82.9541 125.186 85.5513Z" stroke="black" stroke-opacity="0.05" stroke-width="3"/>
</svg>
