<svg width="18" height="18" viewBox="0 0 18 18" fill="none" xmlns="http://www.w3.org/2000/svg">
<path d="M15.75 6L14.25 15H3.75L2.25 6M15.75 6L11.625 9.375L9 5.25M15.75 6C16.3713 6 16.875 5.49632 16.875 4.875C16.875 4.25368 16.3713 3.75 15.75 3.75C15.1287 3.75 14.625 4.25368 14.625 4.875C14.625 5.49632 15.1287 6 15.75 6ZM2.25 6L6.375 9.375L9 5.25M2.25 6C2.87132 6 3.375 5.49632 3.375 4.875C3.375 4.25368 2.87132 3.75 2.25 3.75C1.62868 3.75 1.125 4.25368 1.125 4.875C1.125 5.49632 1.62868 6 2.25 6ZM9 5.25C9.6213 5.25 10.125 4.74632 10.125 4.125C10.125 3.50368 9.6213 3 9 3C8.3787 3 7.875 3.50368 7.875 4.125C7.875 4.74632 8.3787 5.25 9 5.25Z" stroke="#575757" stroke-width="1.2" stroke-linecap="round" stroke-linejoin="round"/>
</svg>
