<svg width="29" height="25" viewBox="0 0 29 25" fill="none" xmlns="http://www.w3.org/2000/svg">
<path d="M14.75 6.81824C13.1387 6.81824 11.8203 5.49988 11.8203 3.88855C11.8203 2.24089 13.1387 0.958862 14.75 0.958862C16.3613 0.958862 17.6797 2.24089 17.6797 3.88855C17.6797 5.49988 16.3613 6.81824 14.75 6.81824ZM3.06758 5.60886C4.34961 5.60886 5.375 6.67058 5.375 7.95261C5.375 9.27097 4.34961 10.2964 3.06758 10.2964C1.74922 10.2964 0.6875 9.27097 0.6875 7.95261C0.6875 6.67058 1.74922 5.60886 3.06758 5.60886ZM26.5051 5.60886C27.7871 5.60886 28.8125 6.67058 28.8125 7.95261C28.8125 9.27097 27.7871 10.2964 26.5051 10.2964C25.1867 10.2964 24.125 9.27097 24.125 7.95261C24.125 6.67058 25.1867 5.60886 26.5051 5.60886ZM5.63164 21.796L3.69102 11.1753C4.27695 11.0651 4.82656 10.7358 5.26602 10.369C6.47422 11.4682 8.01289 12.53 9.47774 12.53C11.2355 12.53 12.6641 9.81941 13.6531 7.54949C13.9824 7.65964 14.3855 7.7698 14.7523 7.7698C15.1191 7.7698 15.5211 7.65964 15.8516 7.54949C16.8406 9.82058 18.2691 12.53 20.027 12.53C21.4918 12.53 23.0305 11.4682 24.2387 10.369C24.6781 10.7358 25.2277 11.0651 25.8137 11.1753L23.873 21.796H5.63516H5.63164ZM5.22852 22.7112H24.2715V24.5053H5.22852V22.7112Z" fill="#FFC017"/>
</svg>
