<svg width="24" height="16" viewBox="0 0 24 16" fill="none" xmlns="http://www.w3.org/2000/svg">
<path fill-rule="evenodd" clip-rule="evenodd" d="M3.40616 4.09433C5.19403 2.30628 7.99956 0.499268 11.999 0.499268C15.9985 0.499268 18.804 2.30628 20.5919 4.09433C21.4836 4.9862 22.1267 5.87676 22.5478 6.54562C22.7587 6.88063 22.915 7.16173 23.0199 7.36195C23.0723 7.46212 23.112 7.5422 23.1393 7.59885C23.1529 7.62718 23.1635 7.64967 23.171 7.6659L23.1799 7.68551L23.1827 7.6917L23.1841 7.69472C23.1842 7.69509 23.1844 7.69542 22.499 8C23.1844 8.30463 23.1842 8.30497 23.1841 8.30533L23.1837 8.30619L23.1827 8.30836L23.1799 8.31455L23.1709 8.33415C23.1634 8.35037 23.1529 8.37286 23.1392 8.40119C23.112 8.45783 23.0723 8.5379 23.0198 8.63804C22.915 8.83822 22.7587 9.11927 22.5477 9.45421C22.1266 10.1229 21.4836 11.0133 20.5918 11.905C18.8039 13.6927 15.9984 15.4993 11.999 15.4993C7.99962 15.4993 5.1941 13.6927 3.40622 11.905C2.51445 11.0133 1.8714 10.1229 1.45031 9.45421C1.23939 9.11927 1.08309 8.83822 0.97822 8.63804C0.925759 8.5379 0.886084 8.45783 0.858808 8.40119C0.845168 8.37286 0.83462 8.35037 0.827116 8.33415L0.818135 8.31455L0.815343 8.30836L0.814369 8.30619L0.813988 8.30533C0.813827 8.30497 0.813677 8.30463 1.49902 8C0.813653 7.69542 0.813802 7.69509 0.813964 7.69472L0.814345 7.69387L0.815318 7.6917L0.818109 7.68551L0.82709 7.6659C0.834593 7.64967 0.845141 7.62718 0.858781 7.59885C0.886056 7.5422 0.925729 7.46212 0.978189 7.36195C1.08305 7.16173 1.23935 6.88063 1.45027 6.54562C1.87136 5.87676 2.5144 4.9862 3.40616 4.09433ZM1.49902 8L0.813653 7.69542C0.727472 7.88935 0.727481 8.11071 0.813677 8.30463L1.49902 8ZM2.33761 7.99996C2.42584 7.83466 2.55256 7.61019 2.71966 7.34478C3.09544 6.74787 3.67115 5.95076 4.46688 5.15493C6.05402 3.56762 8.49849 1.99927 11.999 1.99927C15.4996 1.99927 17.944 3.56762 19.5312 5.15493C20.3269 5.95076 20.9026 6.74787 21.2784 7.34478C21.4455 7.61019 21.5722 7.83467 21.6604 7.99996C21.5722 8.16521 21.4455 8.38961 21.2784 8.65493C20.9027 9.25169 20.327 10.0486 19.5312 10.8443C17.9441 12.4312 15.4996 13.9993 11.999 13.9993C8.49843 13.9993 6.05395 12.4312 4.46682 10.8443C3.6711 10.0486 3.0954 9.25169 2.71962 8.65493C2.55254 8.38961 2.42584 8.16521 2.33761 7.99996ZM22.499 8L23.1844 8.30463C23.2706 8.11071 23.2706 7.88935 23.1844 7.69542L22.499 8Z" fill="#FFC017"/>
<path fill-rule="evenodd" clip-rule="evenodd" d="M11.999 5C10.3422 5 8.99902 6.34315 8.99902 8C8.99902 9.65685 10.3422 11 11.999 11C13.6559 11 14.999 9.65685 14.999 8C14.999 6.34315 13.6559 5 11.999 5ZM7.49902 8C7.49902 5.51472 9.51374 3.5 11.999 3.5C14.4843 3.5 16.499 5.51472 16.499 8C16.499 10.4853 14.4843 12.5 11.999 12.5C9.51374 12.5 7.49902 10.4853 7.49902 8Z" fill="#FFC017"/>
</svg>
