<svg width="27" height="27" viewBox="0 0 27 27" fill="none" xmlns="http://www.w3.org/2000/svg">
<path d="M26.3696 13.7526C26.3696 12.6464 26.2798 11.8392 26.0856 11.0021H13.4541V15.9948H20.8685C20.7191 17.2356 19.9118 19.1042 18.118 20.3598L18.0928 20.5269L22.0867 23.6209L22.3634 23.6485C24.9046 21.3016 26.3696 17.8484 26.3696 13.7526Z" fill="#4285F4"/>
<path d="M13.4532 26.9072C17.0856 26.9072 20.1351 25.7113 22.3625 23.6485L18.1171 20.3597C16.981 21.152 15.4562 21.7051 13.4532 21.7051C9.89546 21.7051 6.8759 19.3583 5.7995 16.1145L5.64173 16.1279L1.48888 19.3418L1.43457 19.4928C3.64692 23.8876 8.19127 26.9072 13.4532 26.9072Z" fill="#34A853"/>
<path d="M5.79995 16.1145C5.51593 15.2774 5.35156 14.3804 5.35156 13.4536C5.35156 12.5268 5.51593 11.6299 5.78501 10.7928L5.77748 10.6145L1.5726 7.34895L1.43502 7.41438C0.523202 9.23812 0 11.2861 0 13.4536C0 15.6211 0.523202 17.669 1.43502 19.4928L5.79995 16.1145Z" fill="#FBBC05"/>
<path d="M13.4532 5.20203C15.9794 5.20203 17.6835 6.29327 18.6552 7.20519L22.4521 3.49794C20.1202 1.33042 17.0856 0 13.4532 0C8.19127 0 3.64692 3.01957 1.43457 7.41439L5.78456 10.7928C6.87589 7.54897 9.89546 5.20203 13.4532 5.20203Z" fill="#EB4335"/>
</svg>
