<svg width="20" height="15" viewBox="0 0 20 15" fill="none" xmlns="http://www.w3.org/2000/svg">
<path d="M0 0.9375C0 0.68886 0.0987719 0.450403 0.274587 0.274587C0.450403 0.0987719 0.68886 0 0.9375 0H19.0625C19.3111 0 19.5496 0.0987719 19.7254 0.274587C19.9012 0.450403 20 0.68886 20 0.9375C20 1.18614 19.9012 1.4246 19.7254 1.60041C19.5496 1.77623 19.3111 1.875 19.0625 1.875H0.9375C0.68886 1.875 0.450403 1.77623 0.274587 1.60041C0.0987719 1.4246 0 1.18614 0 0.9375ZM0 7.1875C0 6.93886 0.0987719 6.7004 0.274587 6.52459C0.450403 6.34877 0.68886 6.25 0.9375 6.25H19.0625C19.3111 6.25 19.5496 6.34877 19.7254 6.52459C19.9012 6.7004 20 6.93886 20 7.1875C20 7.43614 19.9012 7.6746 19.7254 7.85041C19.5496 8.02623 19.3111 8.125 19.0625 8.125H0.9375C0.68886 8.125 0.450403 8.02623 0.274587 7.85041C0.0987719 7.6746 0 7.43614 0 7.1875ZM0.9375 12.5C0.68886 12.5 0.450403 12.5988 0.274587 12.7746C0.0987719 12.9504 0 13.1889 0 13.4375C0 13.6861 0.0987719 13.9246 0.274587 14.1004C0.450403 14.2762 0.68886 14.375 0.9375 14.375H19.0625C19.3111 14.375 19.5496 14.2762 19.7254 14.1004C19.9012 13.9246 20 13.6861 20 13.4375C20 13.1889 19.9012 12.9504 19.7254 12.7746C19.5496 12.5988 19.3111 12.5 19.0625 12.5H0.9375Z" fill="white"/>
</svg>
