<svg width="35" height="35" viewBox="0 0 35 35" fill="none" xmlns="http://www.w3.org/2000/svg">
<rect x="0.5" y="0.5" width="34" height="34" rx="3.5" fill="#0D0D0D"/>
<rect x="0.5" y="0.5" width="34" height="34" rx="3.5" stroke="black"/>
<path d="M8 10.9375C8 10.6889 8.09877 10.4504 8.27459 10.2746C8.4504 10.0988 8.68886 10 8.9375 10H27.0625C27.3111 10 27.5496 10.0988 27.7254 10.2746C27.9012 10.4504 28 10.6889 28 10.9375C28 11.1861 27.9012 11.4246 27.7254 11.6004C27.5496 11.7762 27.3111 11.875 27.0625 11.875H8.9375C8.68886 11.875 8.4504 11.7762 8.27459 11.6004C8.09877 11.4246 8 11.1861 8 10.9375ZM8 17.1875C8 16.9389 8.09877 16.7004 8.27459 16.5246C8.4504 16.3488 8.68886 16.25 8.9375 16.25H27.0625C27.3111 16.25 27.5496 16.3488 27.7254 16.5246C27.9012 16.7004 28 16.9389 28 17.1875C28 17.4361 27.9012 17.6746 27.7254 17.8504C27.5496 18.0262 27.3111 18.125 27.0625 18.125H8.9375C8.68886 18.125 8.4504 18.0262 8.27459 17.8504C8.09877 17.6746 8 17.4361 8 17.1875ZM8.9375 22.5C8.68886 22.5 8.4504 22.5988 8.27459 22.7746C8.09877 22.9504 8 23.1889 8 23.4375C8 23.6861 8.09877 23.9246 8.27459 24.1004C8.4504 24.2762 8.68886 24.375 8.9375 24.375H27.0625C27.3111 24.375 27.5496 24.2762 27.7254 24.1004C27.9012 23.9246 28 23.6861 28 23.4375C28 23.1889 27.9012 22.9504 27.7254 22.7746C27.5496 22.5988 27.3111 22.5 27.0625 22.5H8.9375Z" fill="white"/>
</svg>
