<svg width="22" height="22" viewBox="0 0 22 22" fill="none" xmlns="http://www.w3.org/2000/svg">
<path d="M6.30176 17.3233L9.52442 19.8182C9.94025 20.234 10.8759 20.4419 11.4996 20.4419H15.4499C16.6974 20.4419 18.0488 19.5063 18.3607 18.2589L20.8556 10.6701C21.3754 9.21467 20.4398 7.96716 18.8805 7.96716H14.7222C14.0985 7.96716 13.5787 7.44738 13.6827 6.71969L14.2024 3.39309C14.4104 2.45749 13.7866 1.41792 12.851 1.10605C12.0194 0.794186 10.9798 1.21001 10.564 1.83375L6.30176 8.17508" stroke="#FFC017" stroke-width="1.58" stroke-miterlimit="10"/>
<path d="M1 17.3233V7.13557C1 5.68018 1.62374 5.1604 3.07912 5.1604H4.11869C5.57407 5.1604 6.19781 5.68018 6.19781 7.13557V17.3233C6.19781 18.7786 5.57407 19.2984 4.11869 19.2984H3.07912C1.62374 19.2984 1 18.7786 1 17.3233Z" stroke="#FFC017" stroke-width="1.58" stroke-linecap="round" stroke-linejoin="round"/>
</svg>
