<svg width="24" height="24" viewBox="0 0 24 24" fill="none" xmlns="http://www.w3.org/2000/svg">
<path d="M11.9688 2C6.44875 2 1.96875 6.48 1.96875 12C1.96875 17.52 6.44875 22 11.9688 22C17.4887 22 21.9688 17.52 21.9688 12C21.9688 6.48 17.4988 2 11.9688 2ZM14.9688 14.23L12.0688 15.9C11.7196 16.1034 11.3228 16.2106 10.9187 16.2106C10.5147 16.2106 10.1179 16.1034 9.76875 15.9C9.41687 15.6986 9.1249 15.4073 8.92281 15.0558C8.72071 14.7043 8.61577 14.3054 8.61875 13.9V10.55C8.61875 9.72 9.04875 8.97 9.76875 8.55C10.4888 8.13 11.3488 8.13 12.0788 8.55L14.9788 10.22C15.6988 10.64 16.1287 11.38 16.1287 12.22C16.1287 13.06 15.6988 13.81 14.9688 14.23Z" fill="#757589"/>
</svg>
