<svg width="486" height="434" viewBox="0 0 486 434" fill="none" xmlns="http://www.w3.org/2000/svg">
<path d="M56.1933 417.333C56.1933 417.333 42.5003 428.153 37.6099 428.947C36.8152 429.07 36.0817 429.925 36.0205 430.965C35.9594 432.004 36.4485 433.104 38.588 433.654C41.7667 434.449 55.8877 433.104 63.1621 432.309C65.6073 432.065 67.5023 430.048 67.5635 427.541C67.5635 426.196 67.6246 424.668 67.6857 423.14C67.7469 420.939 66.9522 418.127 66.9522 418.127L56.1933 417.333Z" fill="#422E2D"/>
<path d="M359.886 307.483C367.405 303.754 377.002 306.199 383.176 311.823C389.411 317.447 392.651 325.76 393.996 334.074C400.292 333.34 406.65 332.913 412.518 335.48C415.025 336.519 417.225 338.17 419.365 339.942C425.661 345.077 431.469 352.168 431.346 360.299C435.32 359.993 442.716 363.783 445.162 366.901C459.527 385.117 449.624 398.994 449.624 398.994H360.069L359.886 307.483Z" fill="#DCDDDF"/>
<path d="M409.889 399.055H101.307L138.107 372.83H360.069L409.889 399.055Z" fill="#9FA1A3"/>
<path d="M360.863 216.522C360.863 216.522 416.919 228.992 439.048 261.024C444.244 268.543 466.618 335.113 466.618 335.113L459.71 339.453C459.71 339.453 439.659 310.906 405.243 290.427C395.218 284.559 360.863 281.319 360.863 281.319V216.522Z" fill="#54585A"/>
<path d="M104.058 178.805L137.679 162.116L138.107 178.805H104.058Z" fill="#DCDDDF"/>
<path fill-rule="evenodd" clip-rule="evenodd" d="M360.864 372.83H137.374V149.279H360.864V372.83ZM138.902 371.241H359.275V150.868H138.902V371.241Z" fill="#DCDDDF"/>
<path d="M466.618 335.113C466.618 335.113 479.76 337.497 483.306 336.336C483.917 336.152 484.712 336.458 485.079 337.13C485.507 337.803 485.568 338.72 484.345 339.881C482.45 341.532 472.425 345.628 467.29 347.706C465.517 348.378 463.561 347.706 462.644 346.055C462.155 345.139 461.544 344.16 460.994 343.121C460.138 341.654 459.71 339.453 459.71 339.453L466.618 335.113Z" fill="#422E2D"/>
<path d="M291.237 161.688H209.018V154.414H291.237V161.688Z" fill="#497D6D"/>
<path d="M284.94 242.991H218.37V161.688H284.94V242.991Z" fill="#5D9E8A"/>
<path d="M329.871 178.805C329.871 178.805 339.897 168.718 339.713 168.29C338.735 165.784 331.338 172.447 330.177 172.814C329.016 173.181 329.505 171.286 328.893 170.308C328.343 169.33 325.776 172.141 324.859 174.526C324.003 176.787 329.871 178.805 329.871 178.805Z" fill="#D17975"/>
<path d="M248.08 176.848C245.635 174.281 245.573 170.246 247.958 167.618C250.831 164.439 255.843 161.199 264.035 162.361C271.859 163.522 286.347 176.787 294.294 184.612C297.656 187.913 300.957 187.607 306.948 186.324L324.92 175.381L329.627 178.377C329.627 178.377 324.308 203.44 303.341 206.007C290.687 207.536 270.148 199.65 248.08 176.848Z" fill="#FFC017"/>
<path d="M284.818 249.898H218.37V244.702H284.818V249.898Z" fill="#C4C7C9"/>
<path d="M252.97 159.977C257.738 158.082 263.117 158.937 267.091 162.177C272.776 166.762 280.295 173.914 282.068 180.577C284.941 191.519 284.941 242.991 284.941 242.991H227.296H218.371C218.798 237.061 217.882 200.2 218.371 192.803C218.432 191.825 221.305 183.756 221.733 182.9C224.606 177.704 235.731 166.701 252.97 159.977Z" fill="#FFC017"/>
<path d="M280.845 177.521C286.469 194.76 284.329 200.2 284.757 224.041C284.268 226.058 280.845 177.521 280.845 177.521Z" fill="#D9B635"/>
<path d="M210.974 365.922H155.162V268.665C155.162 261.757 160.725 256.195 167.571 256.195H198.564C205.411 256.195 210.974 261.757 210.974 268.665V365.922Z" fill="#B0B3B5"/>
<path d="M138.902 372.035H137.373V214.993H36.3872V329.673H34.7979V213.404H138.902V372.035Z" fill="#DCDDDF"/>
<path d="M1.72668 371.363C1.54329 370.568 -2.73578 350.946 8.51208 338.536C15.7865 330.528 27.8291 327.472 44.2729 329.489C45.9235 326.494 55.3374 310.967 74.9601 310.295C83.3348 309.989 89.9368 312.251 94.7049 316.958C102.102 324.232 103.019 335.174 102.896 341.043H101.307C101.429 335.419 100.573 324.905 93.6046 318.058C89.1421 313.657 82.8458 311.578 75.0212 311.884C54.2982 312.556 45.5567 330.467 45.4344 330.651L45.1899 331.201L44.6397 331.14C28.3792 329 16.6423 331.873 9.67354 339.576C-1.08529 351.374 3.25492 370.813 3.25492 370.996L1.72668 371.363Z" fill="#DCDDDF"/>
<path d="M155.04 365.923L100.329 354.736L117.812 269.399C119.218 262.674 125.759 258.334 132.483 259.74L162.804 265.914C169.528 267.32 173.868 273.861 172.523 280.585L155.04 365.923Z" fill="#C4C7C9"/>
<path d="M121.541 307.605C109.315 317.813 58.1494 416.782 58.1494 416.782L66.3408 417.333L164.576 337.803L210.974 328.144V278.385C210.974 278.385 159.319 275.94 121.541 307.605Z" fill="#54585A"/>
<path d="M72.7595 389.091C64.2625 404.984 56.1934 417.333 56.1934 417.333L66.9522 418.127L86.8805 400.705L72.7595 389.091Z" fill="#FFC017"/>
<path d="M244.778 150.624C242.455 151.663 239.582 151.296 237.687 149.646C236.954 149.034 236.342 148.179 236.404 147.201C236.526 146.406 237.137 145.672 237.015 144.878C236.954 144.511 236.709 144.205 236.526 143.9C235.853 142.799 235.181 141.577 235.242 140.232C235.303 138.948 236.098 137.787 236.281 136.564C236.404 135.83 236.342 135.097 236.526 134.424C236.832 133.324 237.748 132.529 238.727 132.04C239.766 131.613 240.866 131.49 242.028 131.368C241.783 130.757 242.028 130.084 242.394 129.595C242.822 129.045 243.372 128.739 243.984 128.434C245.329 127.761 246.918 127.456 248.446 127.456C249.669 127.456 251.014 127.822 251.442 128.923C251.564 129.228 251.625 129.534 251.869 129.779C251.992 129.962 252.175 130.023 252.358 130.084C253.459 130.512 254.743 130.696 255.598 131.612C256.271 132.285 256.454 133.324 256.454 134.241C256.515 135.953 256.026 137.725 255.109 139.131C254.987 139.315 254.865 139.498 254.743 139.559C254.253 139.926 253.52 139.621 253.214 139.131C252.847 138.704 252.725 138.092 252.542 137.542C252.358 136.992 251.992 136.442 251.442 136.258C250.952 136.136 250.402 136.381 250.036 136.809C249.669 137.175 249.424 137.664 249.18 138.092" fill="#422E2D"/>
<path d="M252.176 135.769C252.176 135.769 252.909 139.315 253.887 140.293C254.865 141.271 256.516 148.484 255.721 150.257C255.355 151.174 252.42 152.091 248.875 150.379C245.39 148.729 243.434 143.044 243.434 143.044C243.434 143.044 240.622 137.298 252.176 135.769Z" fill="#D17975"/>
<path d="M259.511 157.348C258.166 154.169 249.241 138.031 249.241 138.031C249.241 138.031 246.124 140.904 244.595 143.716C244.29 143.227 243.862 142.616 243.128 141.882C243.128 141.882 241.539 140.598 240.805 141.21C240.133 141.882 239.766 143.533 242.028 144.45L243.74 145.795C243.699 146.121 243.719 146.426 243.801 146.711C243.801 146.711 246.796 161.321 246.613 162.85C246.613 162.85 255.11 168.29 258.166 166.456C261.162 164.622 260.795 160.527 259.511 157.348Z" fill="#D17975"/>
<path d="M258.35 154.964C257.678 153.68 256.822 152.03 255.905 150.318C255.783 150.277 255.722 150.257 255.722 150.257C255.722 150.257 253.093 154.231 248.875 150.379C248.875 150.379 253.888 157.287 258.35 154.964Z" fill="#AB6360"/>
<path d="M253.581 136.442C255.048 138.215 253.031 139.682 253.886 140.293C253.275 140.354 253.214 138.459 252.664 138.092C252.175 137.726 252.052 137.848 251.441 137.664C250.708 137.481 249.913 137.726 249.363 138.276C249.118 138.459 248.996 138.704 248.751 138.887C248.324 139.376 247.651 139.621 246.979 139.621C246.673 139.559 246.367 139.498 246.062 139.559C245.817 139.621 245.634 139.804 245.45 139.987C245.023 140.476 244.9 141.149 245.145 141.76C245.267 142.127 245.512 142.433 245.695 142.738C245.94 143.288 245.94 143.9 245.756 144.45C245.573 143.838 243.372 141.821 243.372 144.144C243.372 144.755 244.167 145.122 244.411 145.672C244.961 146.712 244.778 147.934 244.472 149.034C243.494 148.607 242.883 147.751 242.455 146.834C241.66 145.061 238.421 142.738 238.971 140.904C239.521 139.009 243.739 137.603 245.328 136.564C246.123 136.075 246.918 135.708 247.773 135.403C248.385 135.158 249.057 134.975 249.73 135.036C250.463 135.097 251.136 135.403 251.869 135.464C252.236 135.525 252.419 135.464 252.725 135.647C253.031 135.83 253.336 136.136 253.581 136.442Z" fill="#422E2D"/>
<path d="M254.314 147.628C254.681 148.668 254.62 149.585 254.192 149.768C253.703 149.951 253.03 149.279 252.664 148.24C252.297 147.262 252.358 146.284 252.786 146.161C253.275 145.978 253.947 146.65 254.314 147.628Z" fill="white"/>
<path d="M248.63 143.349H248.446C248.446 143.349 248.018 142.066 248.63 141.516C248.915 141.271 249.404 141.291 250.097 141.577L250.036 141.76C249.424 141.516 248.997 141.495 248.752 141.699C248.324 142.066 248.508 142.983 248.63 143.349Z" fill="#422E2D"/>
<path d="M253.764 141.393C253.703 141.393 253.214 140.232 252.603 140.232C252.277 140.232 251.951 140.537 251.625 141.149L251.441 141.026C251.808 140.374 252.195 140.048 252.603 140.048C253.336 140.048 253.887 141.271 253.948 141.271L253.764 141.393Z" fill="#422E2D"/>
<path d="M257.799 141.577C257.616 141.577 257.432 141.454 257.31 141.21C257.249 140.965 257.371 140.66 257.616 140.537C258.41 140.293 259.022 139.621 259.327 138.765C259.694 137.909 259.633 136.992 259.205 136.258C259.124 136.095 259.022 135.932 258.899 135.769C258.655 135.403 258.41 135.097 258.288 134.608C257.983 133.569 258.41 132.591 258.777 131.735C259.144 130.879 259.45 130.145 259.205 129.473C258.961 128.862 258.288 128.495 257.555 128.128L257.31 128.006C255.598 127.089 254.07 125.805 252.97 124.216C252.787 123.971 252.848 123.666 253.092 123.482C253.337 123.36 253.642 123.36 253.826 123.605C254.865 125.072 256.21 126.233 257.799 127.089L258.044 127.211C258.838 127.639 259.755 128.128 260.183 129.045C260.611 130.145 260.122 131.185 259.755 132.102C259.45 132.896 259.083 133.63 259.327 134.302C259.389 134.608 259.572 134.914 259.816 135.219C259.939 135.382 260.041 135.566 260.122 135.769C260.672 136.747 260.733 137.97 260.305 139.131C259.878 140.293 259.083 141.149 257.983 141.516C257.942 141.556 257.881 141.577 257.799 141.577Z" fill="white"/>
<path d="M259.327 146.406C259.144 146.406 258.9 146.284 258.838 146.039C258.533 145 258.961 143.777 259.939 142.738C260.367 142.31 260.856 141.943 261.284 141.638C261.65 141.332 262.017 141.088 262.323 140.782C262.69 140.415 263.545 139.559 263.423 138.52C263.362 138.153 263.179 137.787 262.934 137.359C262.812 137.155 262.71 136.951 262.629 136.747C262.201 135.769 262.078 134.608 262.323 133.569C262.323 133.263 262.629 133.08 262.934 133.141C263.179 133.202 263.362 133.508 263.301 133.752C263.179 134.608 263.24 135.525 263.607 136.32C263.688 136.523 263.77 136.707 263.851 136.87C264.096 137.359 264.34 137.848 264.462 138.398C264.646 139.865 263.668 140.965 263.056 141.577C262.69 141.882 262.323 142.188 261.895 142.433C261.467 142.799 261.039 143.105 260.672 143.472C260.122 144.022 259.633 144.939 259.878 145.734C259.939 146.039 259.755 146.284 259.511 146.406C259.47 146.406 259.409 146.406 259.327 146.406Z" fill="white"/>
<path d="M233.224 148.729C233.184 148.729 233.143 148.729 233.102 148.729C232.185 148.545 231.757 147.629 231.635 146.895C231.594 146.65 231.574 146.426 231.574 146.223C231.574 145.856 231.513 145.489 231.391 145.183C231.207 144.694 230.779 144.328 230.351 143.961C229.801 143.533 229.312 143.044 229.006 142.371C228.517 141.21 228.884 139.743 229.985 138.459C230.311 138.133 230.637 137.807 230.963 137.481C231.513 136.931 232.002 136.442 232.369 135.831C233.102 134.547 233.102 132.896 232.491 130.634C232.43 130.329 232.613 130.023 232.858 129.962C233.163 129.901 233.408 130.084 233.53 130.329C233.958 131.979 234.386 134.363 233.286 136.32C232.858 137.053 232.246 137.664 231.696 138.276C231.37 138.561 231.065 138.846 230.779 139.132C230.168 139.926 229.557 141.027 229.985 141.943C230.168 142.433 230.596 142.799 231.024 143.166C231.574 143.594 232.063 144.083 232.369 144.817C232.552 145.244 232.613 145.672 232.613 146.161C232.613 146.324 232.634 146.508 232.674 146.712C232.735 147.14 232.98 147.629 233.286 147.69C233.591 147.751 233.775 148.056 233.713 148.301C233.652 148.545 233.469 148.729 233.224 148.729Z" fill="white"/>
<path d="M228.518 146.65C228.477 146.65 228.436 146.63 228.396 146.589C228.151 146.589 227.968 146.284 227.968 146.039C228.049 145.428 227.988 144.918 227.784 144.511C227.662 144.205 227.356 143.961 227.112 143.655C226.908 143.492 226.725 143.309 226.562 143.105C225.339 141.699 225.156 139.437 226.195 137.664C226.378 137.298 226.623 136.931 226.867 136.625C227.03 136.381 227.193 136.136 227.356 135.892C227.723 135.24 227.866 134.689 227.784 134.241C227.784 133.935 227.968 133.691 228.273 133.63C228.518 133.569 228.823 133.752 228.823 134.058C228.946 134.791 228.762 135.566 228.273 136.381C228.07 136.666 227.886 136.951 227.723 137.236C227.479 137.542 227.295 137.848 227.112 138.153C226.317 139.559 226.439 141.332 227.356 142.432C227.479 142.595 227.621 142.759 227.784 142.922C228.151 143.227 228.518 143.594 228.701 144.022C229.027 144.592 229.129 145.306 229.007 146.161C229.007 146.467 228.762 146.65 228.518 146.65Z" fill="white"/>
<path d="M138.108 179.599H68.8477L306.581 36.8615L307.376 38.2063L74.5327 178.071H138.108V179.599Z" fill="#DCDDDF"/>
<path d="M419.793 176.176H360.069V174.587H416.003L289.647 48.1704L290.748 47.0701L419.793 176.176Z" fill="#DCDDDF"/>
<path fill-rule="evenodd" clip-rule="evenodd" d="M283.718 105.327C273.938 105.327 265.93 97.3187 265.93 87.4769C265.93 77.6961 273.938 69.6881 283.718 69.6881C293.56 69.6881 301.568 77.6961 301.568 87.4769C301.568 97.3187 293.56 105.327 283.718 105.327ZM283.718 71.2775C274.793 71.2775 267.519 78.5519 267.519 87.4769C267.519 96.4629 274.793 103.737 283.718 103.737C292.704 103.737 299.979 96.4629 299.979 87.4769C299.979 78.5519 292.704 71.2775 283.718 71.2775Z" fill="#DCDDDF"/>
<path d="M284.513 108.872C281.09 108.872 277.789 107.894 274.854 106.06C270.881 103.432 268.13 99.4583 267.091 94.8124L268.619 94.5068C269.536 98.7247 272.042 102.393 275.71 104.715C279.378 107.1 283.718 107.894 287.936 106.977C296.678 105.082 302.302 96.4018 300.406 87.6603L301.935 87.3546C304.013 96.952 297.839 106.427 288.242 108.505C287.019 108.75 285.776 108.872 284.513 108.872Z" fill="#DCDDDF"/>
<path d="M332.744 315.368H242.333V277.896C242.333 270.193 248.568 264.019 256.209 264.019H318.867C326.509 264.019 332.744 270.193 332.744 277.896V315.368Z" fill="#C4C7C9"/>
<path d="M332.744 335.113H242.333V321.176H332.744V335.113Z" fill="#C4C7C9"/>
<path d="M161.581 64.7977C161.581 64.7977 150.822 27.6309 138.107 16.2607L143.487 12.0428C143.487 12.0428 171.973 20.4787 185.85 64.7977H161.581Z" fill="#FFC017"/>
<path d="M141.47 19.8673C152.656 33.9883 161.581 64.7977 161.581 64.7977H168.428C160.603 42.3019 141.47 19.8673 141.47 19.8673Z" fill="#D9B635"/>
<path d="M143.486 12.0428C143.486 12.0428 135.967 -0.0608989 135.54 0.000230775C132.85 0.367009 137.618 9.10855 137.679 10.3311C137.801 11.4926 136.09 10.6368 134.989 11.0036C133.889 11.3092 136.029 14.4268 138.107 15.894C140.124 17.2999 143.486 12.0428 143.486 12.0428Z" fill="#D17975"/>
<path d="M146.849 82.4641L157.546 83.0754V93.1618L171.973 73.1724H146.849V82.4641Z" fill="#DCDDDF"/>
<path d="M158.341 127.272H156.751V83.8702H146.054V64.0031H197.831V83.4423H187.5V109.728H185.971V81.9141H196.241V65.5924H147.643V82.2808H158.341V127.272Z" fill="#DCDDDF"/>
<path d="M288.303 315.368H286.774V264.019H288.303V315.368Z" fill="white"/>
<path fill-rule="evenodd" clip-rule="evenodd" d="M322.29 307.421C321.923 305.71 321.19 303.937 320.151 302.164C319.723 301.553 319.295 300.942 318.867 300.33C318.072 299.169 317.278 298.13 316.789 296.907C316.177 295.501 315.811 293.301 317.033 291.895C315.199 292.322 314.832 295.623 315.749 297.641C316.361 298.986 322.29 307.421 320.212 310.784C319.662 311.578 318.684 312.128 317.889 312.495C316.361 313.168 315.077 313.473 313.977 313.351L313.916 314.023C314.099 309.255 314.466 291.833 308.903 284.314C309.147 283.703 309.331 282.97 309.331 282.236C309.331 281.258 309.025 280.28 308.536 279.485L308.597 279.546C309.331 277.712 307.986 275.512 307.986 275.512C307.558 278.446 306.213 277.407 306.213 277.407L306.274 277.468C305.602 277.101 304.807 276.918 303.951 276.918C303.157 276.918 302.362 277.101 301.628 277.468L301.69 277.407C301.69 277.407 300.345 278.446 299.917 275.512C299.917 275.512 298.572 277.712 299.367 279.546V279.485C298.878 280.28 298.633 281.258 298.633 282.236C298.633 284.376 299.856 286.148 301.628 287.004C301.628 287.004 301.608 287.004 301.567 287.004C301.567 287.004 300.161 288.41 299.306 297.702C299.224 297.702 299.163 297.681 299.122 297.641C297.716 297.641 296.555 298.802 296.555 300.208V315.368H301.628V315.246H313.854C314.058 315.246 314.282 315.246 314.527 315.246C315.749 315.246 317.094 314.94 318.684 314.207C319.723 313.718 321.068 313.045 321.801 311.762C322.474 310.661 322.657 309.194 322.29 307.421Z" fill="#54585A"/>
<path d="M332.744 311.089H242.333V309.5H332.744V311.089Z" fill="white"/>
<path d="M353.956 229.909H322.535V219.456H353.956V229.909Z" fill="#DCDDDF"/>
<path d="M343.625 241.768H312.204V231.315H343.625V241.768Z" fill="#DCDDDF"/>
<path d="M177.291 196.96H145.932V186.507H177.291V196.96Z" fill="#DCDDDF"/>
<path d="M76.1212 278.385H44.7617V267.932H76.1212V278.385Z" fill="#DCDDDF"/>
<path d="M197.036 164.195H165.677V153.741H197.036V164.195Z" fill="#DCDDDF"/>
<path d="M155.162 365.923C155.835 365.923 184.382 347.828 184.382 347.828H210.974V365.923H155.162Z" fill="#9FA1A3"/>
<path d="M138.107 223.796H43.1729V222.268H138.107V223.796Z" fill="#DCDDDF"/>
<path d="M138.107 243.419H43.1729V241.89H138.107V243.419Z" fill="#DCDDDF"/>
<path d="M138.107 263.041H43.1729V261.452H138.107V263.041Z" fill="#DCDDDF"/>
<path d="M197.036 73.906H146.849V72.3777H197.036V73.906Z" fill="#DCDDDF"/>
<path d="M381.159 217.194L380.303 215.849L439.048 176.848L439.904 178.132L381.159 217.194Z" fill="#DCDDDF"/>
<path d="M400.231 222.635L399.742 221.106L427.312 212.854L427.74 214.382L400.231 222.635Z" fill="#DCDDDF"/>
<path d="M412.763 320.931L398.703 295.807L400.109 295.073L414.108 320.137L412.763 320.931Z" fill="#DCDDDF"/>
<path d="M409.217 352.719L366.977 266.648L368.383 265.975L410.623 351.985L409.217 352.719Z" fill="#DCDDDF"/>
<path d="M360.069 145.733H291.237V144.144H360.069V145.733Z" fill="#DCDDDF"/>
<path d="M360.069 140.537H291.237V139.009H360.069V140.537Z" fill="#DCDDDF"/>
<path d="M360.069 135.402H291.237V133.874H360.069V135.402Z" fill="#DCDDDF"/>
<path d="M449.624 327.227C456.165 334.502 459.71 339.453 459.71 339.453L466.618 335.113C466.618 335.113 463.195 324.966 458.732 312.19L449.624 327.227Z" fill="#FFC017"/>
<path d="M204.922 347.828L161.886 361.949L155.162 365.923H210.974V347.828H204.922Z" fill="#86888A"/>
<path d="M211.707 80.9359H210.24V66.9372H211.707V80.9359Z" fill="#DCDDDF"/>
<path d="M217.942 74.6395H204.005V73.2335H217.942V74.6395Z" fill="#DCDDDF"/>
<path d="M443.328 354.98H441.922V340.982H443.328V354.98Z" fill="#DCDDDF"/>
<path d="M449.624 348.684H435.625V347.278H449.624V348.684Z" fill="#DCDDDF"/>
<path d="M22.6335 209.308H21.2275V195.31H22.6335V209.308Z" fill="#DCDDDF"/>
<path d="M28.9294 203.073H14.9307V201.606H28.9294V203.073Z" fill="#DCDDDF"/>
<path fill-rule="evenodd" clip-rule="evenodd" d="M63.5284 200.567C59.8606 200.567 56.8652 197.571 56.8652 193.904C56.8652 190.236 59.8606 187.24 63.5284 187.24C67.1962 187.24 70.1915 190.236 70.1915 193.904C70.1915 197.571 67.1962 200.567 63.5284 200.567ZM63.5284 187.974C60.2274 187.974 57.5988 190.664 57.5988 193.904C57.5988 197.143 60.2274 199.833 63.5284 199.833C66.7682 199.833 69.3968 197.143 69.3968 193.904C69.3968 190.664 66.7682 187.974 63.5284 187.974Z" fill="#B0B3B5"/>
<path fill-rule="evenodd" clip-rule="evenodd" d="M67.0129 201.545C65.5458 201.545 64.3232 200.322 64.3232 198.794C64.3232 197.266 65.5458 196.104 67.0129 196.104C68.5412 196.104 69.7638 197.266 69.7638 198.794C69.7638 200.322 68.5412 201.545 67.0129 201.545ZM67.0129 196.838C65.9737 196.838 65.0568 197.694 65.0568 198.794C65.0568 199.894 65.9737 200.75 67.0129 200.75C68.1133 200.75 68.9691 199.894 68.9691 198.794C68.9691 197.694 68.1133 196.838 67.0129 196.838Z" fill="#B0B3B5"/>
<path fill-rule="evenodd" clip-rule="evenodd" d="M405.427 378.21C401.698 378.21 398.703 375.214 398.703 371.546C398.703 367.879 401.698 364.883 405.427 364.883C409.095 364.883 412.091 367.879 412.091 371.546C412.091 375.214 409.095 378.21 405.427 378.21ZM405.427 365.678C402.126 365.678 399.498 368.307 399.498 371.546C399.498 374.847 402.126 377.476 405.427 377.476C408.667 377.476 411.296 374.847 411.296 371.546C411.296 368.307 408.667 365.678 405.427 365.678Z" fill="white"/>
<path fill-rule="evenodd" clip-rule="evenodd" d="M408.911 379.188C407.444 379.188 406.222 377.965 406.222 376.437C406.222 374.97 407.444 373.747 408.911 373.747C410.44 373.747 411.662 374.97 411.662 376.437C411.662 377.965 410.44 379.188 408.911 379.188ZM408.911 374.481C407.872 374.481 406.955 375.337 406.955 376.437C406.955 377.537 407.872 378.393 408.911 378.393C410.012 378.393 410.868 377.537 410.868 376.437C410.868 375.337 410.012 374.481 408.911 374.481Z" fill="white"/>
<path d="M112.86 115.963C112.86 121.037 108.765 125.133 103.691 125.133C98.6172 125.133 94.5215 121.037 94.5215 115.963C94.5215 110.951 98.6172 106.855 103.691 106.855C108.765 106.855 112.86 110.951 112.86 115.963Z" fill="#DCDDDF"/>
<path d="M109.071 113.824C109.071 118.897 104.975 122.993 99.9013 122.993C94.8887 122.993 90.793 118.897 90.793 113.824C90.793 108.811 94.8887 104.715 99.9013 104.715C104.975 104.715 109.071 108.811 109.071 113.824Z" fill="white"/>
<path fill-rule="evenodd" clip-rule="evenodd" d="M99.9008 123.971C94.338 123.971 89.8145 119.387 89.8145 113.824C89.8145 108.261 94.338 103.737 99.9008 103.737C105.525 103.737 110.048 108.261 110.048 113.824C110.048 119.387 105.525 123.971 99.9008 123.971ZM99.9008 105.632C95.3772 105.632 91.7095 109.3 91.7095 113.824C91.7095 118.347 95.3772 122.076 99.9008 122.076C104.424 122.076 108.153 118.347 108.153 113.824C108.153 109.3 104.424 105.632 99.9008 105.632Z" fill="#B0B3B5"/>
<path d="M469.614 246.231C469.614 251.304 465.518 255.4 460.505 255.4C455.432 255.4 451.336 251.304 451.336 246.231C451.336 241.218 455.432 237.122 460.505 237.122C465.518 237.122 469.614 241.218 469.614 246.231Z" fill="#DCDDDF"/>
<path d="M465.885 244.091C465.885 249.165 461.789 253.261 456.715 253.261C451.642 253.261 447.546 249.165 447.546 244.091C447.546 239.078 451.642 234.922 456.715 234.922C461.789 234.922 465.885 239.078 465.885 244.091Z" fill="white"/>
<path fill-rule="evenodd" clip-rule="evenodd" d="M456.715 254.178C451.153 254.178 446.629 249.654 446.629 244.091C446.629 238.528 451.153 234.005 456.715 234.005C462.278 234.005 466.802 238.528 466.802 244.091C466.802 249.654 462.278 254.178 456.715 254.178ZM456.715 235.9C452.192 235.9 448.524 239.568 448.524 244.091C448.524 248.615 452.192 252.283 456.715 252.283C461.239 252.283 464.907 248.615 464.907 244.091C464.907 239.568 461.239 235.9 456.715 235.9Z" fill="#B0B3B5"/>
<path d="M237.382 34.2939C237.382 38.6952 233.775 42.3019 229.374 42.3019C224.911 42.3019 221.305 38.6952 221.305 34.2939C221.305 29.8314 224.911 26.2248 229.374 26.2248C233.775 26.2248 237.382 29.8314 237.382 34.2939Z" fill="#DCDDDF"/>
<path d="M234.081 32.399C234.081 36.8614 230.474 40.4681 226.073 40.4681C221.611 40.4681 218.004 36.8614 218.004 32.399C218.004 27.9976 221.611 24.391 226.073 24.391C230.474 24.391 234.081 27.9976 234.081 32.399Z" fill="white"/>
<path fill-rule="evenodd" clip-rule="evenodd" d="M226.073 41.2627C221.182 41.2627 217.209 37.2893 217.209 32.3989C217.209 27.5085 221.182 23.5351 226.073 23.5351C230.963 23.5351 234.937 27.5085 234.937 32.3989C234.937 37.2893 230.963 41.2627 226.073 41.2627ZM226.073 25.1856C222.099 25.1856 218.859 28.4255 218.859 32.3989C218.859 36.3723 222.099 39.6122 226.073 39.6122C230.046 39.6122 233.286 36.3723 233.286 32.3989C233.286 28.4255 230.046 25.1856 226.073 25.1856Z" fill="#B0B3B5"/>
<path fill-rule="evenodd" clip-rule="evenodd" d="M138.291 278.263C138.352 274.595 141.408 271.661 145.076 271.722C148.805 271.844 151.678 274.9 151.617 278.568C151.556 282.236 148.438 285.17 144.771 285.048C141.103 284.987 138.169 281.93 138.291 278.263ZM150.884 278.568C150.945 275.267 148.316 272.577 145.076 272.516C141.836 272.394 139.085 275.023 139.024 278.263C138.963 281.502 141.531 284.253 144.832 284.314C148.072 284.376 150.761 281.808 150.884 278.568Z" fill="white"/>
<path fill-rule="evenodd" clip-rule="evenodd" d="M137.251 281.747C137.312 280.28 138.535 279.057 140.063 279.118C141.53 279.118 142.753 280.402 142.692 281.869C142.692 283.397 141.408 284.559 139.941 284.559C138.412 284.498 137.251 283.275 137.251 281.747ZM141.958 281.869C141.958 280.769 141.102 279.852 140.002 279.852C138.963 279.852 138.046 280.708 138.046 281.747C137.985 282.847 138.84 283.764 139.941 283.764C141.041 283.825 141.897 282.97 141.958 281.869Z" fill="white"/>
</svg>
