<svg width="20" height="23" viewBox="0 0 20 23" fill="none" xmlns="http://www.w3.org/2000/svg">
<path d="M8.06251 13.4563L6.95313 14.5656C6.21569 13.7147 5.8106 12.626 5.81251 11.5V5.25C5.81251 4.0068 6.30637 2.81451 7.18545 1.93544C8.06452 1.05636 9.25681 0.5625 10.5 0.5625C11.7432 0.5625 12.9355 1.05636 13.8146 1.93544C14.6936 2.81451 15.1875 4.0068 15.1875 5.25V6.33281L13.625 7.89531V5.25C13.625 4.4212 13.2958 3.62634 12.7097 3.04029C12.1237 2.45424 11.3288 2.125 10.5 2.125C9.67121 2.125 8.87635 2.45424 8.2903 3.04029C7.70425 3.62634 7.37501 4.4212 7.37501 5.25V11.5C7.37501 12.2406 7.63282 12.9219 8.06251 13.4563ZM9.33126 14.3984C9.80559 14.5897 10.3196 14.6617 10.8282 14.6079C11.3369 14.5542 11.8245 14.3765 12.2484 14.0903C12.6723 13.8042 13.0195 13.4184 13.2595 12.9667C13.4996 12.5151 13.625 12.0114 13.625 11.5V10.1047L15.1875 8.54219V11.5C15.1878 12.3222 14.9718 13.13 14.5612 13.8424C14.1507 14.5547 13.5599 15.1466 12.8484 15.5585C12.1368 15.9704 11.3294 16.1879 10.5072 16.1891C9.68498 16.1904 8.87691 15.9754 8.16407 15.5656L9.33126 14.3984ZM5.68751 18.0422L6.81407 16.9172C7.68431 17.4633 8.69134 17.7521 9.71876 17.75H11.2813C12.7317 17.75 14.1227 17.1738 15.1482 16.1482C16.1738 15.1227 16.75 13.7317 16.75 12.2812V11.5C16.75 11.2928 16.8323 11.0941 16.9788 10.9476C17.1253 10.8011 17.3241 10.7188 17.5313 10.7188C17.7385 10.7188 17.9372 10.8011 18.0837 10.9476C18.2302 11.0941 18.3125 11.2928 18.3125 11.5V12.2812C18.3125 14.1461 17.5717 15.9345 16.2531 17.2531C14.9345 18.5717 13.1461 19.3125 11.2813 19.3125V20.875H12.8438C13.051 20.875 13.2497 20.9573 13.3962 21.1038C13.5427 21.2503 13.625 21.449 13.625 21.6562C13.625 21.8635 13.5427 22.0622 13.3962 22.2087C13.2497 22.3552 13.051 22.4375 12.8438 22.4375H8.15626C7.94906 22.4375 7.75034 22.3552 7.60383 22.2087C7.45732 22.0622 7.37501 21.8635 7.37501 21.6562C7.37501 21.449 7.45732 21.2503 7.60383 21.1038C7.75034 20.9573 7.94906 20.875 8.15626 20.875H9.71876V19.3125C8.21876 19.3125 6.82813 18.8438 5.68751 18.0422ZM4.51251 17.0078C3.33585 15.7151 2.68492 14.0293 2.68751 12.2812V11.5C2.68751 11.2928 2.76982 11.0941 2.91633 10.9476C3.06284 10.8011 3.26156 10.7188 3.46876 10.7188C3.67596 10.7188 3.87467 10.8011 4.02118 10.9476C4.1677 11.0941 4.25001 11.2928 4.25001 11.5V12.2812C4.25001 13.6687 4.7672 14.9375 5.61876 15.9016L4.51251 17.0078Z" fill="#FFC017"/>
<path d="M1.67969 19.9734C1.53298 20.1164 1.33593 20.1961 1.13101 20.1953C0.926091 20.1944 0.729713 20.1131 0.584199 19.9688C0.438685 19.8245 0.355686 19.6288 0.35309 19.4239C0.350494 19.219 0.428508 19.0213 0.57032 18.8734L17.7578 1.57493C17.9045 1.43187 18.1016 1.35218 18.3065 1.35303C18.5114 1.35389 18.7078 1.43523 18.8533 1.57951C18.9988 1.7238 19.0818 1.91948 19.0844 2.12438C19.087 2.32928 19.009 2.527 18.8672 2.67493L1.67969 19.9734Z" fill="#FFC017"/>
</svg>
