<svg width="573" height="455" viewBox="0 0 573 455" fill="none" xmlns="http://www.w3.org/2000/svg">
<path d="M572.5 431.622H13.4356" stroke="#262127" stroke-width="0.6"/>
<path d="M363.475 454.331H119.137" stroke="#262127" stroke-width="0.6"/>
<path d="M110.339 353.981H508.652C513.883 353.981 518.164 349.7 518.164 344.469V98.8226C518.164 93.5911 513.883 89.3107 508.652 89.3107H110.339C105.107 89.3107 100.827 93.5911 100.827 98.8226V344.469C100.827 349.7 105.107 353.981 110.339 353.981Z" stroke="#D5B2B2"/>
<path d="M87.2726 334.005H485.585C490.817 334.005 495.097 329.725 495.097 324.493V78.8476C495.097 73.4971 490.817 69.2167 485.585 69.2167H87.2726C82.0411 69.2167 77.7607 73.4971 77.7607 78.8476V324.493C77.7607 329.725 82.0411 334.005 87.2726 334.005Z" fill="#FBF3DD"/>
<path d="M288.688 296.195H465.016C467.632 296.195 469.653 294.055 469.653 291.558V120.106C469.653 117.49 467.632 115.469 465.016 115.469H288.688C286.191 115.469 284.051 117.49 284.051 120.106V291.558C284.051 294.055 286.191 296.195 288.688 296.195Z" stroke="#D5B2B2"/>
<path d="M96.6655 158.272V265.282C96.6655 268.611 99.4002 271.227 102.61 271.227H197.254C200.583 271.227 203.199 268.611 203.199 265.282V158.272C203.199 154.943 200.583 152.327 197.254 152.327H102.61C99.4002 152.327 96.6655 154.943 96.6655 158.272Z" stroke="white"/>
<path d="M312.586 273.129H443.613C446.11 273.129 448.013 271.108 448.013 268.611V196.796C448.013 194.299 446.11 192.277 443.613 192.277H312.586C310.208 192.277 308.187 194.299 308.187 196.796V268.611C308.187 271.108 310.208 273.129 312.586 273.129Z" stroke="white"/>
<path d="M409.727 263.974H427.324V203.692H409.727V263.974Z" fill="#3C6BE0"/>
<path d="M382.737 263.974H400.334V230.206H382.737V263.974Z" fill="#FFC017"/>
<path d="M355.866 263.974H373.463V210.112H355.866V263.974Z" fill="#3C6BE0"/>
<path d="M328.876 263.974H346.473V225.332H328.876V263.974Z" fill="#73C994"/>
<path d="M448.013 163.861H340.647" stroke="white"/>
<path d="M448.013 177.653H387.493" stroke="white"/>
<path d="M456.812 85.387C456.812 88.3595 459.19 90.7375 462.043 90.7375C465.016 90.7375 467.394 88.3595 467.394 85.387C467.394 82.5335 465.016 80.1555 462.043 80.1555C459.19 80.1555 456.812 82.5335 456.812 85.387Z" fill="#3C6BE0"/>
<path d="M439.215 85.387C439.215 88.3595 441.593 90.7375 444.446 90.7375C447.419 90.7375 449.797 88.3595 449.797 85.387C449.797 82.5335 447.419 80.1555 444.446 80.1555C441.593 80.1555 439.215 82.5335 439.215 85.387Z" fill="#DF7246"/>
<path d="M421.617 85.387C421.617 88.3595 423.995 90.7375 426.968 90.7375C429.821 90.7375 432.199 88.3595 432.199 85.387C432.199 82.5335 429.821 80.1555 426.968 80.1555C423.995 80.1555 421.617 82.5335 421.617 85.387Z" stroke="#D5B2B2"/>
<path d="M365.853 0.968536H397.837C399.383 0.968536 400.69 2.39534 400.69 4.05993V22.0137C400.69 23.5594 399.383 24.9862 397.837 24.9862H384.758L373.819 37.1139V25.4618L365.853 25.224C364.188 25.224 362.88 23.9161 362.88 22.2515V4.05993C362.88 2.39534 364.188 0.968536 365.853 0.968536Z" stroke="#D5B2B2"/>
<path d="M547.769 280.857C547.769 285.376 551.336 288.943 555.855 288.943C560.254 288.943 563.821 285.376 563.821 280.857C563.821 276.339 560.254 272.772 555.855 272.772C551.336 272.772 547.769 276.339 547.769 280.857Z" stroke="#D5B2B2"/>
<path d="M19.3811 346.133C19.3811 349.462 21.9968 352.078 25.2071 352.078C28.4174 352.078 31.0332 349.462 31.0332 346.133C31.0332 342.923 28.4174 340.188 25.2071 340.188C21.9968 340.188 19.3811 342.923 19.3811 346.133Z" stroke="#D5B2B2"/>
<path d="M158.136 32.0013H170.264V19.6357H158.136V32.0013Z" stroke="#D5B2B2"/>
<path d="M51.4833 130.45H121.991C127.103 130.45 131.265 126.288 131.265 121.057V50.6685C131.265 45.5558 127.103 41.2754 121.991 41.2754H51.4833C46.3706 41.2754 42.2091 45.5558 42.2091 50.6685V121.057C42.2091 126.288 46.3706 130.45 51.4833 130.45Z" fill="#FFC017"/>
<path d="M86.7964 60.7749V85.8626L108.198 98.8226C103.799 106.075 95.8327 110.95 86.7964 110.95C72.8852 110.95 61.7086 99.7738 61.7086 85.8626C61.7086 72.0703 72.8852 60.7749 86.7964 60.7749Z" fill="white"/>
<path d="M105.582 69.3357C109.387 73.7349 111.765 79.561 111.765 85.8627C111.765 88.954 111.171 92.0454 110.101 94.7801L91.0766 83.7225L105.582 69.3357Z" fill="#3C6BE0"/>
<path d="M379.764 148.285H541.467C544.44 148.285 546.818 145.907 546.818 142.815V106.67C546.818 103.698 544.44 101.32 541.467 101.32H379.764C376.792 101.32 374.414 103.698 374.414 106.67V142.815C374.414 145.907 376.792 148.285 379.764 148.285Z" fill="#3C6BE0"/>
<path d="M488.319 116.658H397.836" stroke="white"/>
<path d="M488.319 131.044H438.262" stroke="white"/>
<path d="M392.724 142.102V167.309L419.595 142.102H392.724Z" fill="#3C6BE0"/>
<path d="M524.702 120.819H505.678L505.44 137.108H524.702V120.819Z" stroke="white"/>
<path d="M519.946 120.819V115.825C519.946 113.091 517.806 110.95 515.071 110.95C512.337 110.95 510.197 113.091 510.197 115.825V120.819" stroke="white"/>
<path d="M-7.62939e-05 233.06V295.72C-7.62939e-05 299.168 2.73456 301.903 6.18263 301.903H122.823C126.271 301.903 129.125 299.168 129.125 295.72V233.06C129.125 229.612 126.271 226.877 122.823 226.877H6.18263C2.73456 226.877 -7.62939e-05 229.612 -7.62939e-05 233.06Z" fill="#73C994"/>
<path d="M85.5 245.566V261.434C85.5 262.307 86.1777 263 87.0322 263H115.938C116.793 263 117.5 262.307 117.5 261.434V245.566C117.5 244.693 116.793 244 115.938 244H87.0322C86.1777 244 85.5 244.693 85.5 245.566Z" fill="white"/>
<path d="M48.5 269.566V285.434C48.5 286.307 49.1777 287 50.0322 287H78.9383C79.7928 287 80.5 286.307 80.5 285.434V269.566C80.5 268.693 79.7928 268 78.9383 268H50.0322C49.1777 268 48.5 268.693 48.5 269.566Z" fill="white"/>
<path d="M11.5 245.566V261.434C11.5 262.307 12.1777 263 13.0322 263H41.9383C42.7928 263 43.5 262.307 43.5 261.434V245.566C43.5 244.693 42.7928 244 41.9383 244H13.0322C12.1777 244 11.5 244.693 11.5 245.566Z" fill="white"/>
<path d="M224.363 406.534L206.171 400.47L214.375 375.858L232.567 382.041L224.363 406.534Z" fill="#E1A4A7"/>
<path d="M207.122 397.617L230.189 405.226L246.716 419.732C249.926 422.942 250.996 427.698 249.569 431.978L201.058 415.808L207.122 397.617Z" fill="#3D2E17"/>
<path d="M231.854 406.772L229 397.973C229 397.973 221.39 393.812 219.131 402.848L231.854 406.772Z" fill="#3D2E17"/>
<path d="M246.24 210.588L272.16 298.692C273.468 302.616 273.349 306.896 272.042 310.82L236.372 390.126L207.123 380.257L232.924 304.756L199.037 208.448L246.24 210.588Z" fill="#DF7246"/>
<path d="M217.348 260.645L218.655 240.669C218.655 240.669 233.161 273.961 232.923 304.756L217.348 260.645Z" fill="#D46538"/>
<path d="M243.149 380.614L238.274 391.196L203.912 379.782L208.074 368.605L243.149 380.614Z" fill="#D46538"/>
<path d="M192.736 415.333H173.593L175.971 384.657H195.114L192.736 415.333Z" fill="#E1A4A7"/>
<path d="M173.593 412.241H197.848L218.061 420.802C222.104 422.823 224.601 426.985 224.601 431.503H172.047L173.593 412.241Z" fill="#3D2E17"/>
<path d="M199.87 413.192L194.4 405.821C194.4 405.821 185.84 404.156 186.553 413.549L199.87 413.192Z" fill="#3D2E17"/>
<path d="M181.678 209.399C181.678 209.399 176.209 225.094 177.874 250.538L170.145 395.952H199.038L215.565 301.07L220.677 209.161L181.678 209.399Z" fill="#DF7246"/>
<path d="M179.895 216.89H247.786" stroke="#D46538"/>
<path d="M191.309 222.953C191.309 222.953 191.903 236.865 181.797 240.669" stroke="#D46538"/>
<path d="M242.316 216.89V210.945" stroke="#D46538"/>
<path d="M191.547 216.89V210.945" stroke="#D46538"/>
<path d="M219.726 216.89L219.131 231.871" stroke="#D46538"/>
<path d="M203.674 384.3L202.129 395.952H166.816L167.41 383.943L203.674 384.3Z" fill="#D46538"/>
<path d="M202.842 83.9602L203.675 115.706C203.794 121.295 208.312 125.813 213.9 126.051C219.964 126.288 224.958 121.532 225.077 115.469L225.314 88.8351L202.842 83.9602Z" fill="#F5DFCA"/>
<path d="M234.826 58.7536C234.826 58.7536 250.759 58.7536 238.274 80.0365L234.826 69.5734V58.7536Z" fill="#3D2E17"/>
<path d="M220.796 108.453C231.259 108.453 239.939 102.033 239.939 91.4509V70.5246C239.939 65.8875 236.134 62.0828 231.616 62.0828H209.976C205.339 62.0828 201.535 65.8875 201.535 70.5246V88.4784C201.535 99.0605 211.879 108.453 220.796 108.453Z" fill="#F5DFCA"/>
<path d="M189.764 62.7962C189.764 58.8725 193.212 56.9701 196.779 56.6134C197.492 51.7385 202.129 45.5558 207.836 45.5558C210.214 45.5558 212.473 46.2692 214.376 47.4582C216.397 45.6747 219.132 44.6046 222.223 44.6046C224.958 44.6046 227.455 45.5557 229.476 47.1014C236.848 41.5132 252.661 50.5495 242.436 62.0828C237.442 67.671 220.202 65.2931 211.76 64.6986C211.522 64.7778 211.284 64.8571 211.047 64.9363C214.614 75.994 204.745 81.3445 204.745 81.3445H197.254C197.254 81.3445 193.925 73.3782 193.331 68.1466C191.309 67.1954 189.764 65.4119 189.764 62.7962Z" fill="#3D2E17"/>
<path d="M193.093 83.8413C193.093 87.6461 196.184 90.7375 199.989 90.7375C203.794 90.7375 206.885 87.6461 206.885 83.8413C206.885 80.0366 203.794 76.9452 199.989 76.9452C196.184 76.9452 193.093 80.0366 193.093 83.8413Z" fill="#F5DFCA"/>
<path d="M208.788 73.8538C208.788 73.8538 207.48 87.765 210.453 92.0454C213.306 96.2069 214.971 90.9753 226.98 90.7375C233.995 90.4997 237.562 92.0454 239.226 93.1155C240.058 93.8289 239.94 94.899 239.583 95.9691C238.632 99.6549 235.778 108.216 224.364 109.048C213.068 109.88 201.416 103.341 203.438 87.2894C205.816 69.2167 199.157 62.0828 199.157 62.0828L208.788 73.8538Z" fill="#3D2E17"/>
<path d="M221.748 81.7011C221.629 82.5334 220.915 83.1279 220.083 83.1279C219.251 83.009 218.656 82.2957 218.656 81.4634C218.775 80.6311 219.488 80.0366 220.321 80.0366C221.153 80.1555 221.748 80.8688 221.748 81.7011Z" fill="#3D2E17"/>
<path d="M236.015 81.5822C235.896 82.4145 235.183 83.009 234.351 83.009C233.518 82.8901 232.924 82.1767 233.043 81.3444C233.043 80.5121 233.756 79.9176 234.589 79.9176C235.421 80.0365 236.134 80.7499 236.015 81.5822Z" fill="#3D2E17"/>
<path d="M230.427 83.1279L230.903 87.1705C230.903 87.1705 230.665 89.5485 227.336 88.5973" stroke="#7C473D" stroke-width="1.1" stroke-linecap="round" stroke-linejoin="round"/>
<path d="M216.04 77.183C216.199 77.183 216.318 77.183 216.397 77.183L223.293 76.8263C224.007 76.8263 224.601 76.2318 224.601 75.3995C224.482 74.6861 223.888 74.0916 223.174 74.0916L216.278 74.4483C215.446 74.4483 214.851 75.0428 214.97 75.8751C214.97 76.4696 215.446 77.0641 216.04 77.183Z" fill="#3D2E17"/>
<path d="M233.043 76.8262C233.122 76.8262 233.241 76.8262 233.4 76.8262L237.561 76.5885C238.275 76.5885 238.869 75.994 238.869 75.1617C238.869 74.4483 238.156 73.8538 237.442 73.8538L233.281 73.9727C232.449 74.0916 231.854 74.6861 231.854 75.5184C231.973 76.1129 232.449 76.7073 233.043 76.8262Z" fill="#3D2E17"/>
<path d="M233.043 93.4721H221.748C221.748 93.4721 222.699 97.8714 228.525 97.3958C232.448 97.0391 233.043 93.4721 233.043 93.4721Z" fill="white"/>
<path d="M328.162 157.797L315.915 161.007L319.839 174.799L331.253 171.708L328.162 157.797Z" fill="#F5DFCA"/>
<path d="M324.358 161.483C324.358 168.26 329.946 173.729 336.723 173.729C343.501 173.61 348.851 168.141 348.851 161.364C348.851 154.586 343.263 149.117 336.486 149.236C329.708 149.236 324.239 154.705 324.358 161.483Z" fill="#F5DFCA"/>
<path d="M337.199 149.236L350.04 145.907C351.11 145.55 352.299 146.145 352.656 147.215C352.894 148.166 352.537 149.117 351.705 149.474L338.626 155.3L337.199 149.236Z" fill="#F5DFCA"/>
<path d="M268.832 166.12L317.224 156.489L321.029 179.199L270.615 188.71C263.363 189.186 257.418 182.766 258.726 175.513C259.558 170.4 263.719 166.595 268.832 166.12Z" fill="#FFC017"/>
<path d="M248.143 121.889C248.143 121.889 265.859 145.907 278.343 174.443C279.77 177.653 279.413 181.339 277.511 184.311C273.112 190.851 264.194 189.305 259.795 183.241C259.795 183.241 226.384 137.227 227.811 135.444C228.168 134.968 248.143 121.889 248.143 121.889Z" fill="#FFC017"/>
<path d="M247.905 166.714C248.381 165.05 248.856 148.404 248.856 148.404L258.487 181.458L247.905 166.714Z" fill="#DBAF37"/>
<path d="M200.464 135.563C200.464 135.563 180.608 160.175 162.654 185.5C160.633 188.354 155.877 189.781 152.31 189.662C144.463 189.305 141.134 180.863 144.106 173.967C144.106 173.967 174.069 121.414 177.517 120.462C178.111 120.225 200.464 135.563 200.464 135.563Z" fill="#FFC017"/>
<path d="M154.331 242.691L155.044 229.969L140.658 229.612L140.063 241.502L154.331 242.691Z" fill="#F5DFCA"/>
<path d="M151.953 237.935C145.414 235.913 138.518 239.599 136.615 246.02C134.594 252.44 138.161 259.337 144.7 261.358C151.121 263.379 158.017 259.693 160.038 253.273C161.941 246.733 158.374 239.956 151.953 237.935Z" fill="#F5DFCA"/>
<path d="M164.319 183.598L158.85 232.584L136.021 229.374L142.204 178.485C143.868 171.351 151.835 167.784 158.374 171.113C163.011 173.491 165.389 178.604 164.319 183.598Z" fill="#FFC017"/>
<path d="M214.019 115.706L244.338 119.63C247.43 119.987 249.689 122.84 249.332 125.932L246.36 210.945L181.322 210.707L174.901 125.932C174.544 122.721 176.804 119.868 180.014 119.511L214.019 115.706Z" fill="#FFC017"/>
<path d="M177.874 164.812L189.288 149.712L180.371 198.222L177.874 164.812Z" fill="#DBAF37"/>
<path d="M224.601 117.133L231.854 117.965C231.854 117.965 233.043 127.477 219.488 129.261C206.053 130.925 199.394 124.386 196.779 117.609L214.376 114.517L224.601 117.133Z" fill="#F5DFCA"/>
<path d="M236.015 118.56C236.015 118.56 237.085 133.779 217.467 133.779C195.114 133.779 193.092 118.084 193.092 118.084" stroke="#DBAF37"/>
</svg>
