<svg width="20" height="20" viewBox="0 0 20 20" fill="none" xmlns="http://www.w3.org/2000/svg">
<path fill-rule="evenodd" clip-rule="evenodd" d="M1.56836 9.99994C1.56836 5.57733 5.26563 1.9921 9.82644 1.9921C14.3873 1.9921 18.0845 5.57733 18.0845 9.99994C18.0845 14.4225 14.3873 18.0078 9.82644 18.0078C5.26563 18.0078 1.56836 14.4225 1.56836 9.99994ZM9.82644 0.536133C4.43639 0.536133 0.0668945 4.77322 0.0668945 9.99994C0.0668945 15.2267 4.43639 19.4637 9.82644 19.4637C15.2165 19.4637 19.586 15.2267 19.586 9.99994C19.586 4.77322 15.2165 0.536133 9.82644 0.536133ZM10.5772 4.90419C10.5772 4.50214 10.241 4.17621 9.82642 4.17621C9.4118 4.17621 9.07568 4.50214 9.07568 4.90419V10.0001C9.07568 10.4021 9.4118 10.7281 9.82642 10.7281H15.0816C15.4962 10.7281 15.8323 10.4021 15.8323 10.0001C15.8323 9.59803 15.4962 9.2721 15.0816 9.2721H10.5772V4.90419Z" fill="#757589"/>
</svg>
