<svg width="20" height="19" viewBox="0 0 20 19" fill="none" xmlns="http://www.w3.org/2000/svg">
<path fill-rule="evenodd" clip-rule="evenodd" d="M10.0002 1.75C7.10066 1.75 4.75016 4.1005 4.75016 7C4.75016 9.89949 7.10066 12.25 10.0002 12.25C12.8997 12.25 15.2502 9.89949 15.2502 7C15.2502 4.1005 12.8997 1.75 10.0002 1.75ZM3.25016 7C3.25016 3.27208 6.27223 0.25 10.0002 0.25C13.7281 0.25 16.7502 3.27208 16.7502 7C16.7502 10.7279 13.7281 13.75 10.0002 13.75C6.27223 13.75 3.25016 10.7279 3.25016 7Z" fill="#FFC017"/>
<path fill-rule="evenodd" clip-rule="evenodd" d="M10.0002 13.75C8.28852 13.75 6.60714 14.2004 5.12469 15.056C3.64224 15.9116 2.41106 17.1422 1.55481 18.6243C1.3476 18.983 0.888871 19.1057 0.530211 18.8985C0.171551 18.6913 0.0487773 18.2326 0.255988 17.8739C1.24392 16.1639 2.66445 14.744 4.37489 13.7568C6.08532 12.7697 8.02529 12.25 10.0002 12.25C11.975 12.25 13.9153 12.7697 15.6257 13.757C17.3361 14.7442 18.7566 16.1641 19.7445 17.8741C19.9517 18.2328 19.8289 18.6915 19.4702 18.8987C19.1116 19.1059 18.6529 18.9831 18.4457 18.6245C17.5894 17.1424 16.3583 15.9117 14.8758 15.0561C13.3934 14.2005 11.7118 13.75 10.0002 13.75Z" fill="#FFC017"/>
</svg>
